<svg width="85" height="85" viewBox="0 0 85 85" fill="none" xmlns="http://www.w3.org/2000/svg">
<path d="M63.75 63.75C75.486 52.014 75.486 32.986 63.75 21.25C52.0139 9.51395 32.986 9.51395 21.25 21.25C9.51395 32.9861 9.51395 52.0139 21.25 63.75C32.986 75.486 52.0139 75.486 63.75 63.75Z" fill="#FCC24C"/>
<path d="M59.4469 59.4469C68.8064 50.0874 68.8064 34.9126 59.4469 25.5531C50.0874 16.1936 34.9126 16.1936 25.5531 25.5531C16.1936 34.9126 16.1936 50.0874 25.5531 59.4469C34.9126 68.8064 50.0874 68.8064 59.4469 59.4469Z" fill="#F4EFED"/>
<path d="M42.9141 24.5835C43.9073 24.5835 44.6933 25.3697 44.6933 26.3626V27.2729C47.1345 27.5626 49.2035 28.3488 51.1068 29.5487C51.7689 29.9209 52.3481 30.5416 52.3481 31.5348C52.3481 32.8176 51.314 33.8105 50.0309 33.8105C49.6172 33.8105 49.2035 33.6862 48.7896 33.4383C47.3415 32.5694 45.9346 31.9487 44.5277 31.6177V39.5622C50.8174 41.1346 53.5068 43.6585 53.5068 48.0861C53.5068 52.6376 49.9483 55.6581 44.6933 56.1547V58.6374C44.6933 59.6303 43.9073 60.4165 42.9141 60.4165C41.9209 60.4165 41.0935 59.6303 41.0935 58.6374V56.072C37.9901 55.741 35.1349 54.6239 32.611 52.8446C31.9077 52.3894 31.4935 51.7275 31.4935 50.8584C31.4935 49.5756 32.4867 48.5827 33.7692 48.5827C34.2658 48.5827 34.7624 48.7482 35.1347 49.0378C37.0794 50.4447 38.9828 51.3965 41.2588 51.8102V43.6585C35.2173 42.0863 32.4036 39.8103 32.4036 35.1348C32.4036 30.7074 35.9206 27.6454 41.0933 27.2315V26.3626C41.0938 25.3697 41.9209 24.5835 42.9141 24.5835ZM41.2593 38.6933V31.3695C38.6111 31.6177 37.2868 33.0246 37.2868 34.8454C37.2868 36.5831 38.0733 37.6587 41.2593 38.6933ZM44.528 44.4447V51.9755C47.1762 51.6856 48.6243 50.3616 48.6243 48.3755C48.6243 46.5551 47.714 45.4379 44.528 44.4447Z" fill="#FCC24C"/>
<path d="M42.5004 12.4477C42.0945 12.4477 41.6907 12.4581 41.2886 12.4741C57.324 13.1103 70.1292 26.3086 70.1292 42.5C70.1292 58.6914 57.324 71.8897 41.2886 72.5259C41.6907 72.5419 42.0945 72.5523 42.5004 72.5523C59.0978 72.5523 72.5527 59.0974 72.5527 42.5C72.5527 25.9026 59.0978 12.4477 42.5004 12.4477Z" fill="#DEA42E"/>
<path d="M42.5004 72.5523C42.9064 72.5523 43.3101 72.5419 43.7122 72.5259C27.6769 71.8897 14.8717 58.6914 14.8717 42.5C14.8717 26.3086 27.6769 13.1103 43.7122 12.4741C43.3101 12.4581 42.9064 12.4477 42.5004 12.4477C25.903 12.4477 12.4481 25.9026 12.4481 42.5C12.4481 59.0974 25.903 72.5523 42.5004 72.5523Z" fill="#FCE06A"/>
<path d="M42.5004 73.037C25.6622 73.037 11.9634 59.3383 11.9634 42.5C11.9634 25.6617 25.6622 11.963 42.5004 11.963C59.3387 11.963 73.0375 25.6617 73.0375 42.5C73.0375 59.3383 59.3387 73.037 42.5004 73.037ZM42.5004 12.9324C26.1968 12.9324 12.9328 26.1964 12.9328 42.5C12.9328 58.8036 26.1968 72.0676 42.5004 72.0676C58.8041 72.0676 72.068 58.8036 72.068 42.5C72.068 26.1964 58.8041 12.9324 42.5004 12.9324Z" fill="#690589"/>
<path d="M42.5004 66.9514C29.0178 66.9514 18.049 55.9826 18.049 42.5C18.049 29.0174 29.0178 18.0486 42.5004 18.0486C55.983 18.0486 66.9519 29.0174 66.9519 42.5C66.9519 55.9826 55.983 66.9514 42.5004 66.9514ZM42.5004 19.018C29.5525 19.018 19.0184 29.5521 19.0184 42.5C19.0184 55.4479 29.5525 65.982 42.5004 65.982C55.4484 65.982 65.9824 55.4479 65.9824 42.5C65.9824 29.5521 55.4484 19.018 42.5004 19.018Z" fill="#690589"/>
<path d="M21.7018 36.2743C21.6519 36.2743 21.601 36.2666 21.551 36.2501C21.2966 36.167 21.1577 35.8931 21.2411 35.6389C21.5712 34.6292 21.972 33.6307 22.4323 32.6714C22.5481 32.43 22.8372 32.3283 23.0789 32.4441C23.3203 32.56 23.422 32.8496 23.3062 33.0907C22.8641 34.0119 22.4793 34.9704 22.1623 35.9399C22.0956 36.1447 21.9056 36.2743 21.7018 36.2743Z" fill="#690589"/>
<path d="M42.9141 60.9012C41.643 60.9012 40.6091 59.8857 40.6091 58.6374V56.5027C37.6365 56.1149 34.854 55.0185 32.3321 53.2408C31.4722 52.6851 31.0093 51.8574 31.0093 50.8584C31.0093 49.3105 32.2218 48.098 33.7697 48.098C34.3715 48.098 34.9776 48.3011 35.433 48.6551C37.2839 49.9937 38.9581 50.8002 40.7748 51.2161V44.0312C34.4915 42.3255 31.9196 39.7308 31.9196 35.1347C31.9196 30.6099 35.314 27.3713 40.6091 26.7906V26.3626C40.6091 25.1142 41.6432 24.0988 42.9141 24.0988C44.1836 24.0988 45.1782 25.0931 45.1782 26.3626V26.8478C47.4026 27.1692 49.4275 27.9186 51.3554 29.1325C52.322 29.68 52.8331 30.5106 52.8331 31.5348C52.8331 33.0827 51.6024 34.2955 50.0312 34.2955C49.5307 34.2955 49.029 34.1469 48.5407 33.8541C47.2962 33.1074 46.136 32.5786 45.0127 32.2475V39.186C51.3014 40.8321 53.9918 43.5077 53.9918 48.0863C53.9918 52.6271 50.5481 55.9288 45.1782 56.5897V58.6374C45.1782 59.9068 44.1836 60.9012 42.9141 60.9012ZM33.7697 49.0674C32.7487 49.0674 31.9787 49.8374 31.9787 50.8584C31.9787 51.5215 32.2802 52.053 32.8747 52.4376C35.3984 54.2163 38.1755 55.2734 41.1452 55.5902C41.3916 55.6164 41.5785 55.8243 41.5785 56.0722V58.6376C41.5785 59.3513 42.1776 59.932 42.9141 59.932C43.64 59.932 44.2088 59.3635 44.2088 58.6376V56.1549C44.2088 55.9048 44.399 55.6959 44.6479 55.6724C49.8135 55.1842 53.0226 52.2774 53.0226 48.0863C53.0226 43.8952 50.5275 41.5618 44.4107 40.0328C44.195 39.9787 44.0435 39.7851 44.0435 39.5626V31.6181C44.0435 31.4701 44.1111 31.3302 44.2272 31.2381C44.3433 31.1463 44.495 31.1123 44.6392 31.1463C46.0476 31.4776 47.4869 32.0915 49.0395 33.0231C49.3797 33.2271 49.7043 33.3263 50.0314 33.3263C51.0588 33.3263 51.8639 32.5393 51.8639 31.535C51.8639 30.8685 51.5294 30.3424 50.8695 29.9716C50.8625 29.9677 50.8554 29.9633 50.8487 29.9592C48.9195 28.7426 46.8876 28.0216 44.6366 27.7545C44.3925 27.7256 44.2088 27.5189 44.2088 27.2732V26.3629C44.2088 25.637 43.64 25.0684 42.9141 25.0684C42.1776 25.0684 41.5785 25.6491 41.5785 26.3629V27.2315C41.5785 27.484 41.3844 27.6946 41.1326 27.7147C36.1247 28.1153 32.889 31.028 32.889 35.1347C32.889 39.3406 35.2702 41.5989 41.3817 43.1892C41.5952 43.2447 41.7443 43.4377 41.7443 43.6585V51.8101C41.7443 51.9539 41.6805 52.0903 41.57 52.1824C41.4597 52.2745 41.3146 52.3128 41.1728 52.2871C38.9811 51.8884 37.0316 51.0077 34.8514 49.4304C34.5492 49.1958 34.1599 49.0674 33.7697 49.0674ZM41.0938 27.2315H41.0962H41.0938ZM44.528 52.4604C44.4092 52.4604 44.2936 52.4168 44.2044 52.3366C44.1019 52.2447 44.0433 52.1133 44.0433 51.9757V44.4449C44.0433 44.2908 44.1167 44.1458 44.2405 44.0545C44.3649 43.9633 44.5251 43.9362 44.6722 43.9822C47.8648 44.9776 49.1088 46.2093 49.1088 48.3759C49.1088 50.6551 47.4583 52.1429 44.5806 52.4577C44.5631 52.4594 44.5454 52.4604 44.528 52.4604ZM45.0127 45.116V51.4161C46.3706 51.1701 48.1393 50.451 48.1393 48.3757C48.1396 47.0236 47.6088 46.035 45.0127 45.116ZM41.2593 39.178C41.2089 39.178 41.1585 39.1702 41.1095 39.1542C37.9693 38.1346 36.8021 36.9667 36.8021 34.8451C36.8021 32.6254 38.4513 31.1458 41.2142 30.8867C41.3497 30.8739 41.4849 30.9189 41.5858 31.011C41.6866 31.1029 41.744 31.233 41.744 31.3695V38.6933C41.744 38.8484 41.6696 38.9943 41.5443 39.0854C41.4602 39.1462 41.3604 39.178 41.2593 39.178ZM40.7746 31.9208C38.8578 32.2444 37.7715 33.2914 37.7715 34.8451C37.7715 36.2014 38.255 37.0957 40.7746 38.0142V31.9208Z" fill="#690589"/>
</svg>
