<svg width="45" height="45" viewBox="0 0 45 45" fill="none" xmlns="http://www.w3.org/2000/svg">
<path d="M22.875 39.375C32.1948 39.375 39.75 31.8198 39.75 22.5C39.75 13.1802 32.1948 5.625 22.875 5.625C13.5552 5.625 6 13.1802 6 22.5C6 31.8198 13.5552 39.375 22.875 39.375Z" stroke="#F4EFED" stroke-width="2" stroke-linecap="round" stroke-linejoin="round"/>
<path d="M23.0312 28.125C26.9145 28.125 30.0625 24.977 30.0625 21.0938C30.0625 17.2105 26.9145 14.0625 23.0312 14.0625C19.148 14.0625 16 17.2105 16 21.0938C16 24.977 19.148 28.125 23.0312 28.125Z" stroke="#F4EFED" stroke-width="2" stroke-linecap="round" stroke-linejoin="round"/>
<path d="M11 35.0508C12.058 32.9668 13.6725 31.2164 15.6644 29.9938C17.6564 28.7711 19.9479 28.1239 22.2852 28.1239C24.6224 28.1239 26.914 28.7711 28.9059 29.9938C30.8978 31.2164 32.5123 32.9668 33.5703 35.0508" stroke="#F4EFED" stroke-width="2" stroke-linecap="round" stroke-linejoin="round"/>
</svg>
